                    <svg class="opacity-70 ml-1.5 mt-0.5 dark:opacity-[90%]" width="22" height="22" viewBox="0 0 22 22" fill="none" xmlns="http://www.w3.org/2000/svg">
                        <path d="M19.7203 11.178C19.7219 11.1091 19.7227 11.04 19.7227 10.9707C19.7227 6.03236 15.7194 2.02905 10.7811 2.02905C5.84271 2.02905 1.83942 6.03236 1.83942 10.9707C1.83942 11.04 1.84021 11.1091 1.8418 11.178H19.7203Z" fill="#FF1C1C"/>
                        <path d="M19.7203 11.178C19.7219 11.2469 19.7227 11.316 19.7227 11.3853C19.7227 16.3236 15.7194 20.3269 10.7811 20.3269C5.84272 20.3269 1.83942 16.3236 1.83942 11.3853C1.83942 11.316 1.8402 11.2469 1.84177 11.178H19.7203Z" fill="white"/>
                        <path d="M12.7311 19.8791C15.543 18.0075 17.396 14.8091 17.396 11.178C17.396 7.54681 15.543 4.34843 12.7311 2.47681C16.7297 3.35338 19.7227 6.91615 19.7227 11.178C19.7227 15.4398 16.7297 19.0026 12.7311 19.8791Z" fill="black" fill-opacity="0.1"/>
                        <path fill-rule="evenodd" clip-rule="evenodd" d="M10.7811 21.7215C16.6041 21.7215 21.3246 17.001 21.3246 11.178C21.3246 5.35495 16.6041 0.63446 10.7811 0.63446C4.95807 0.63446 0.237549 5.35495 0.237549 11.178C0.237549 17.001 4.95807 21.7215 10.7811 21.7215ZM10.7811 20.0647C15.689 20.0647 19.6677 16.086 19.6677 11.178C19.6677 6.27 15.689 2.29129 10.7811 2.29129C5.87305 2.29129 1.89435 6.27 1.89435 11.178C1.89435 16.086 5.87305 20.0647 10.7811 20.0647Z" fill="black"/>
                        <path d="M0.675537 11.178H19.7227" stroke="black" stroke-width="1.45"/>
                        <circle cx="10.7811" cy="11.178" r="3.42531" fill="black"/>
                        <circle cx="10.7811" cy="11.178" r="2.04303" fill="white"/>
                    </svg>